<mxfile host="65bd71144e">
    <diagram id="vXDJA8LqD5f2viVQQOq7" name="Page-1">
        <mxGraphModel dx="703" dy="521" grid="1" gridSize="10" guides="1" tooltips="1" connect="1" arrows="1" fold="1" page="1" pageScale="1" pageWidth="850" pageHeight="1100" math="0" shadow="0">
            <root>
                <mxCell id="0"/>
                <mxCell id="1" parent="0"/>
                <mxCell id="2" value="Customer" style="swimlane;fontStyle=0;childLayout=stackLayout;horizontal=1;startSize=26;fillColor=none;horizontalStack=0;resizeParent=1;resizeParentMax=0;resizeLast=0;collapsible=1;marginBottom=0;" vertex="1" parent="1">
                    <mxGeometry x="80" y="40" width="140" height="156" as="geometry"/>
                </mxCell>
                <mxCell id="3" value="_id: ObjectId" style="text;strokeColor=none;fillColor=none;align=left;verticalAlign=top;spacingLeft=4;spacingRight=4;overflow=hidden;rotatable=0;points=[[0,0.5],[1,0.5]];portConstraint=eastwest;" vertex="1" parent="2">
                    <mxGeometry y="26" width="140" height="26" as="geometry"/>
                </mxCell>
                <mxCell id="4" value="name: String&#10;" style="text;strokeColor=none;fillColor=none;align=left;verticalAlign=top;spacingLeft=4;spacingRight=4;overflow=hidden;rotatable=0;points=[[0,0.5],[1,0.5]];portConstraint=eastwest;" vertex="1" parent="2">
                    <mxGeometry y="52" width="140" height="26" as="geometry"/>
                </mxCell>
                <mxCell id="5" value="phone: String" style="text;strokeColor=none;fillColor=none;align=left;verticalAlign=top;spacingLeft=4;spacingRight=4;overflow=hidden;rotatable=0;points=[[0,0.5],[1,0.5]];portConstraint=eastwest;" vertex="1" parent="2">
                    <mxGeometry y="78" width="140" height="26" as="geometry"/>
                </mxCell>
                <mxCell id="6" value="id_document: String" style="text;strokeColor=none;fillColor=none;align=left;verticalAlign=top;spacingLeft=4;spacingRight=4;overflow=hidden;rotatable=0;points=[[0,0.5],[1,0.5]];portConstraint=eastwest;" vertex="1" parent="2">
                    <mxGeometry y="104" width="140" height="26" as="geometry"/>
                </mxCell>
                <mxCell id="7" value="address: String" style="text;strokeColor=none;fillColor=none;align=left;verticalAlign=top;spacingLeft=4;spacingRight=4;overflow=hidden;rotatable=0;points=[[0,0.5],[1,0.5]];portConstraint=eastwest;" vertex="1" parent="2">
                    <mxGeometry y="130" width="140" height="26" as="geometry"/>
                </mxCell>
                <mxCell id="8" value="Sale" style="swimlane;fontStyle=0;childLayout=stackLayout;horizontal=1;startSize=26;fillColor=none;horizontalStack=0;resizeParent=1;resizeParentMax=0;resizeLast=0;collapsible=1;marginBottom=0;" vertex="1" parent="1">
                    <mxGeometry x="370" y="40" width="140" height="130" as="geometry"/>
                </mxCell>
                <mxCell id="9" value="_id: ObjectId" style="text;strokeColor=none;fillColor=none;align=left;verticalAlign=top;spacingLeft=4;spacingRight=4;overflow=hidden;rotatable=0;points=[[0,0.5],[1,0.5]];portConstraint=eastwest;" vertex="1" parent="8">
                    <mxGeometry y="26" width="140" height="26" as="geometry"/>
                </mxCell>
                <mxCell id="10" value="datetime: DateTime" style="text;strokeColor=none;fillColor=none;align=left;verticalAlign=top;spacingLeft=4;spacingRight=4;overflow=hidden;rotatable=0;points=[[0,0.5],[1,0.5]];portConstraint=eastwest;" vertex="1" parent="8">
                    <mxGeometry y="52" width="140" height="26" as="geometry"/>
                </mxCell>
                <mxCell id="11" value="number: Number" style="text;strokeColor=none;fillColor=none;align=left;verticalAlign=top;spacingLeft=4;spacingRight=4;overflow=hidden;rotatable=0;points=[[0,0.5],[1,0.5]];portConstraint=eastwest;" vertex="1" parent="8">
                    <mxGeometry y="78" width="140" height="26" as="geometry"/>
                </mxCell>
                <mxCell id="36" value="customer_id: ObjectId" style="text;strokeColor=none;fillColor=none;align=left;verticalAlign=top;spacingLeft=4;spacingRight=4;overflow=hidden;rotatable=0;points=[[0,0.5],[1,0.5]];portConstraint=eastwest;" vertex="1" parent="8">
                    <mxGeometry y="104" width="140" height="26" as="geometry"/>
                </mxCell>
                <mxCell id="12" value="n" style="endArrow=open;html=1;endSize=12;startArrow=diamondThin;startSize=14;startFill=1;edgeStyle=orthogonalEdgeStyle;align=left;verticalAlign=bottom;" edge="1" parent="1">
                    <mxGeometry x="-0.8667" y="-10" relative="1" as="geometry">
                        <mxPoint x="370" y="50" as="sourcePoint"/>
                        <mxPoint x="220" y="50" as="targetPoint"/>
                        <mxPoint as="offset"/>
                    </mxGeometry>
                </mxCell>
                <mxCell id="32" value="" style="edgeStyle=none;rounded=0;html=1;" edge="1" parent="1" source="13" target="29">
                    <mxGeometry relative="1" as="geometry"/>
                </mxCell>
                <mxCell id="13" value="Product" style="swimlane;fontStyle=0;childLayout=stackLayout;horizontal=1;startSize=26;fillColor=none;horizontalStack=0;resizeParent=1;resizeParentMax=0;resizeLast=0;collapsible=1;marginBottom=0;" vertex="1" parent="1">
                    <mxGeometry x="660" y="278" width="140" height="156" as="geometry"/>
                </mxCell>
                <mxCell id="14" value="_id: ObjectId" style="text;strokeColor=none;fillColor=none;align=left;verticalAlign=top;spacingLeft=4;spacingRight=4;overflow=hidden;rotatable=0;points=[[0,0.5],[1,0.5]];portConstraint=eastwest;" vertex="1" parent="13">
                    <mxGeometry y="26" width="140" height="26" as="geometry"/>
                </mxCell>
                <mxCell id="15" value="description: String" style="text;strokeColor=none;fillColor=none;align=left;verticalAlign=top;spacingLeft=4;spacingRight=4;overflow=hidden;rotatable=0;points=[[0,0.5],[1,0.5]];portConstraint=eastwest;" vertex="1" parent="13">
                    <mxGeometry y="52" width="140" height="26" as="geometry"/>
                </mxCell>
                <mxCell id="16" value="unit: String" style="text;strokeColor=none;fillColor=none;align=left;verticalAlign=top;spacingLeft=4;spacingRight=4;overflow=hidden;rotatable=0;points=[[0,0.5],[1,0.5]];portConstraint=eastwest;" vertex="1" parent="13">
                    <mxGeometry y="78" width="140" height="26" as="geometry"/>
                </mxCell>
                <mxCell id="17" value="price: Number" style="text;strokeColor=none;fillColor=none;align=left;verticalAlign=top;spacingLeft=4;spacingRight=4;overflow=hidden;rotatable=0;points=[[0,0.5],[1,0.5]];portConstraint=eastwest;" vertex="1" parent="13">
                    <mxGeometry y="104" width="140" height="26" as="geometry"/>
                </mxCell>
                <mxCell id="38" value="supplier_id: ObjectId" style="text;strokeColor=none;fillColor=none;align=left;verticalAlign=top;spacingLeft=4;spacingRight=4;overflow=hidden;rotatable=0;points=[[0,0.5],[1,0.5]];portConstraint=eastwest;" vertex="1" parent="13">
                    <mxGeometry y="130" width="140" height="26" as="geometry"/>
                </mxCell>
                <mxCell id="18" value="SaleItem&#10;" style="swimlane;fontStyle=0;childLayout=stackLayout;horizontal=1;startSize=26;fillColor=none;horizontalStack=0;resizeParent=1;resizeParentMax=0;resizeLast=0;collapsible=1;marginBottom=0;" vertex="1" parent="1">
                    <mxGeometry x="370" y="278" width="140" height="104" as="geometry"/>
                </mxCell>
                <mxCell id="20" value="order: Number" style="text;strokeColor=none;fillColor=none;align=left;verticalAlign=top;spacingLeft=4;spacingRight=4;overflow=hidden;rotatable=0;points=[[0,0.5],[1,0.5]];portConstraint=eastwest;" vertex="1" parent="18">
                    <mxGeometry y="26" width="140" height="26" as="geometry"/>
                </mxCell>
                <mxCell id="21" value="quantity: Number" style="text;strokeColor=none;fillColor=none;align=left;verticalAlign=top;spacingLeft=4;spacingRight=4;overflow=hidden;rotatable=0;points=[[0,0.5],[1,0.5]];portConstraint=eastwest;" vertex="1" parent="18">
                    <mxGeometry y="52" width="140" height="26" as="geometry"/>
                </mxCell>
                <mxCell id="37" value="product_id: ObjectId" style="text;strokeColor=none;fillColor=none;align=left;verticalAlign=top;spacingLeft=4;spacingRight=4;overflow=hidden;rotatable=0;points=[[0,0.5],[1,0.5]];portConstraint=eastwest;" vertex="1" parent="18">
                    <mxGeometry y="78" width="140" height="26" as="geometry"/>
                </mxCell>
                <mxCell id="22" value="n" style="endArrow=open;html=1;endSize=12;startArrow=diamondThin;startSize=14;startFill=1;edgeStyle=orthogonalEdgeStyle;align=left;verticalAlign=bottom;exitX=0.5;exitY=0;exitDx=0;exitDy=0;rounded=0;entryX=0.507;entryY=1.025;entryDx=0;entryDy=0;entryPerimeter=0;" edge="1" parent="1" source="18" target="36">
                    <mxGeometry x="-0.875" y="-10" relative="1" as="geometry">
                        <mxPoint x="410" y="200" as="sourcePoint"/>
                        <mxPoint x="440" y="180" as="targetPoint"/>
                        <Array as="points">
                            <mxPoint x="440" y="171"/>
                        </Array>
                        <mxPoint as="offset"/>
                    </mxGeometry>
                </mxCell>
                <mxCell id="23" value="n" style="endArrow=open;html=1;endSize=12;startArrow=diamondThin;startSize=14;startFill=1;edgeStyle=orthogonalEdgeStyle;align=left;verticalAlign=bottom;rounded=0;" edge="1" parent="1">
                    <mxGeometry x="-0.8667" y="10" relative="1" as="geometry">
                        <mxPoint x="510" y="290" as="sourcePoint"/>
                        <mxPoint x="660" y="290" as="targetPoint"/>
                        <mxPoint as="offset"/>
                    </mxGeometry>
                </mxCell>
                <mxCell id="24" value="Suplier" style="swimlane;fontStyle=0;childLayout=stackLayout;horizontal=1;startSize=26;fillColor=none;horizontalStack=0;resizeParent=1;resizeParentMax=0;resizeLast=0;collapsible=1;marginBottom=0;" vertex="1" parent="1">
                    <mxGeometry x="660" y="40" width="140" height="156" as="geometry"/>
                </mxCell>
                <mxCell id="25" value="_id: ObjectId" style="text;strokeColor=none;fillColor=none;align=left;verticalAlign=top;spacingLeft=4;spacingRight=4;overflow=hidden;rotatable=0;points=[[0,0.5],[1,0.5]];portConstraint=eastwest;" vertex="1" parent="24">
                    <mxGeometry y="26" width="140" height="26" as="geometry"/>
                </mxCell>
                <mxCell id="26" value="name: String" style="text;strokeColor=none;fillColor=none;align=left;verticalAlign=top;spacingLeft=4;spacingRight=4;overflow=hidden;rotatable=0;points=[[0,0.5],[1,0.5]];portConstraint=eastwest;" vertex="1" parent="24">
                    <mxGeometry y="52" width="140" height="26" as="geometry"/>
                </mxCell>
                <mxCell id="27" value="address: String" style="text;strokeColor=none;fillColor=none;align=left;verticalAlign=top;spacingLeft=4;spacingRight=4;overflow=hidden;rotatable=0;points=[[0,0.5],[1,0.5]];portConstraint=eastwest;" vertex="1" parent="24">
                    <mxGeometry y="78" width="140" height="26" as="geometry"/>
                </mxCell>
                <mxCell id="28" value="phone: String" style="text;strokeColor=none;fillColor=none;align=left;verticalAlign=top;spacingLeft=4;spacingRight=4;overflow=hidden;rotatable=0;points=[[0,0.5],[1,0.5]];portConstraint=eastwest;" vertex="1" parent="24">
                    <mxGeometry y="104" width="140" height="26" as="geometry"/>
                </mxCell>
                <mxCell id="29" value="country: String" style="text;strokeColor=none;fillColor=none;align=left;verticalAlign=top;spacingLeft=4;spacingRight=4;overflow=hidden;rotatable=0;points=[[0,0.5],[1,0.5]];portConstraint=eastwest;" vertex="1" parent="24">
                    <mxGeometry y="130" width="140" height="26" as="geometry"/>
                </mxCell>
                <mxCell id="30" value="n" style="endArrow=open;html=1;endSize=12;startArrow=diamondThin;startSize=14;startFill=1;edgeStyle=orthogonalEdgeStyle;align=left;verticalAlign=bottom;rounded=0;exitX=0.5;exitY=0;exitDx=0;exitDy=0;" edge="1" parent="1" source="13" target="29">
                    <mxGeometry x="-0.8049" y="-10" relative="1" as="geometry">
                        <mxPoint x="730" y="242" as="sourcePoint"/>
                        <mxPoint x="730" y="200" as="targetPoint"/>
                        <Array as="points">
                            <mxPoint x="730" y="220"/>
                            <mxPoint x="730" y="220"/>
                        </Array>
                        <mxPoint as="offset"/>
                    </mxGeometry>
                </mxCell>
                <mxCell id="34" value="" style="shape=stencil(lZ3ZriQ3kkS/Rq8JLsHtuWf6PwSo1BK6RyWU1LP8/ZAQcrlmvIeVb1rM80YwSKev5j/kv/3xy4+/f/khhT/+/Pb1n1/+59ef/vzlh/wfP6T062+/fPn265/zn37I//lD/tvPX799+ce3r//+7ae//v33Hxdy/dN/ff3v9Qv/+5dc7LcrLKkU/u+v/5Ju6a//8Pe/8P/69beP+JwEXzLiYxP8SIgPH38/39IF+HbrWfBlIL58fJ7rFuh92y0p/qLnqbeRBT/o9+utXB/w5ZYr4mMUfKf1LLfaP+DrLTFe3rfyel63XgU/6Pnn8pUP+HbLEfD5Nprga0O8rOdjQ32Gj1XwuQM+3ZriG71vun/OO37cIp2XeBtF8IX2T9T3HbdOzx/1PMZwSyQQbv1SgVpQoHw8wfNv4icIt1hU4IJ3Hvcd/4JvsCfmCn48MvOjRHiDcUtZ8aTj+v2Ev+AH7Ol+P1EPfMZPYCp34ivsOVOh89AFeN92a0XxF/x+u11D8bTnpgr9eASWkgGdUvUITHyD/VBVxS0lifgrKf6C56+3MBTf4fnn08rzNPy+xfZnwxM2V0/w84vD/rzuu/EFf8GBvG7N8B3W87qfjgd+3J/wE3xuiq/4/OnjeqZwC/j7KSmedPplJkq4NbjjL9VXaSo4/n3Dk37b4RvsB8en+479DF8Vz/vB8Yf1kfXMtwD6eYe/8Pvq8+Rbe+t953/h72X4wutveLJx/XtNm++t/TCNOn5fwdfTfrgUX3j9DU/33XW3eB74afPheQ9N8Q2+1zQRRT901D/5flu94EnfZtXn00Kg857vFuoLvsB+yOqSTPyA9Zmn4yM+B/QZsurbief1FHsjR/QZsroME082elb9nNNhPWNXPO3PrPf1xA/8vuGj/ZYz3hdJ7b2JJx8s3W/PB/66W5if4OX+nfiKv18/nsdc0Kedq9cVT/o2qUE/8R30f7p7LA98RfsnqT028XTfpbv2eOAbxiyS2vMTX/H5RV/ljvZkspDFtPDJJ7zfDg/8QHsmqr8z8Rf5kLeWFU/fK95vk0fIInAMSO3ticcYwQY/yOU0fLxl8jg3+Abnxd+X9c8Of/HzGL7j91J85hjNBs/r34LiMUZj+Ot+I3w3nuwTxxf0T3d4Xn/H8/orvh72v+PLW/unvrn/G+rnqPbGxJN/Gu/Rgwe+oz8S79bRC573j9xH17gHqb4PXwLGZ+LdW3zBYwz0Vj9+rxLRHot37f3AH2Li6r9PfMf1ueT38z2i8hlefp/jOVHvx4mvuH/kfizlsP7R8BSPivfoxANf7x7TFh80hD7xpE+CpgBKQ/0Z9H6ceIpvBNtvfF7C3Vt8wdN5DxpPKwP1ebhnIB4hdz4vQe2ria/8PB/3W30Ejb8bT/Ecf555/4J+2OEpXrfDkz8e7tbUA5/RP93hKQfg+Av9U39+vk99/QvGN3b4936/Yg7Dn7+i/vf1qfekz3fiG/prfl7a6Xt9PL+135Nun+Gr4i9+fvt9uq8dP26Z1/NSPOs3Wc8WMOe6wx/0ieCnPuHzmBRf+fkFnzDe6M9z1CeX4ul+d3xGf9++b2N73vGcww4aL2oX2s9B7ZnGOeyg8YRWDvpT7NWJ5/PY5XkqrmfU+OHEsz8o+q01zE+ZPz7xtD7p/msPPMcHktozbdwjbJ/FAz8+Tw+HfFAoiu8YvxX7vEf0d4ql1NM9AvkJvn5c/57xfqn6fSee4htV93+/UD/XezbhgS9onzR7noLn91Hx8MDXe0T9E7ycr15R305rVr5vQ3ugqz0/8ZxflpKhzvdjV3+z8/7vWvIx8QPWc+j56gP327hHU1/wlM8aGq8bAfMpq6IiqwA68EE9zvHwUT4TkJTumEqPXLCoOdQpgHUu5mRPgUbvEDULMxJqoWhh3CmAYb5H1vFFgOoCVlnFx406Mgf6su7UkVFTREuFDVZFU0BiO+Pi2EK5r8mLAAaXH7UPLwJYcVdtLxWuCLJ6kSlA8fRoCmAKYABsmEDFKrEUNEU3BSjksWLw9hcoh7mSUB+V0mCluuoEowpQlv2Z1H0RwDRFux/5FwHMy3QNNAwuHFma71KBCJovR6t263imc7pXbr0I0InLViwwOl62uWi11RQgbZ/b/bJ/ESD3LHe1x8fAgreVjokqQAbP9fCXXgTIQ7vSXbm/CNB3eGYQXgSoBuy6TAmMexp7L1A0CzoFaHtfVdOgS4DKGJrGeacA3aJXV8NwCdAqPfzu7xRYgWz7DuTqlKi56LNAf+8vJFOVBwErfzgJXGo/nwTKZi+hQDVL4CDQ3n2HvjmiKDDe/As1bLY3Clia5CSQzKo8COR7GOR7BS71ZE4CxbT3QaC+eR6mQH9rL61Y4Hvv0DW8fxIY6i8dBFq4l4O9CoCR2OJGAD3QdEv2Dljym7XmdF0ocMc1K0Jbdxz9haJVO/PapaqdZmGAKUBlR63dqyxejRO4H6aAKoGOgbYV1zGbj66s9rjGXwTonp4CG7sV/kK3ZNfgZPWK7ZgAfbjue6ngtTsFJL83uP6xW0HddGk6fOkV30kqQA74CvCI5uMSiSmgdmvGmGqvZiQm/gvNzkPCLHF3t4wd8O7mT8Q61z7sTHPUYQqoMg7YzTIsdbp+gkI58e6PvAiQhzIseLuWAbbGWnWJdjXMRoyk4aL57ancclh95hQg/2HkTYAykYAp43VCYGuMS1MYzzP4mYA4rz2jqlwnWB5p+iz04Ypq76mpKKs1BXRrcBp7FA1I9YAnbgpoomdgodEUkO29LgB+BwkXrSuG30FzBw3jGs9IzIsAJVeGxZfmRUzdUUvA0kN4HqpeKCv/RN+hqvnztD4+FbCMG1kzS0DegZXxEpCcT0QTbiMQMAm+FUigjIe1PU3DlGJky1AIKkB1qk/L4iHQ8VIc1rk1rXFU91W9rJX65w8n7nHl2uJR9TzUinG+Yff0qqagL900PTYFKF09mtbLT78LlUBTRTYFqIB5RSblkTJ2RCyzNqoA6tambbM1YfRnCsgtWrlId3TVS/XQRdo1bXQoi1qRSanbe8RHPxOQoFo5GCddfdFVacZ/QayZFemg89B1WacALuvQ4vZS0VNcbp5UWxb044ZZlVOAyjGGOU3lcD8MvR+mADWQLIGqApQBXt6zfLjMl+JQ27sc7KWhTRglnb6DdBWViHmgYWnRKYC6dWzqdsnxWwJFBSjuPSwPdHE3/EagY2vyVoAi6xuBhs05GwGu/t4KoCJzAeaE2Aqk9wQujC9tBPJJCbjAafOJACeDtwKUxd8IRLZmXID77LYCVEjhAnlgtmwj0LF0bSuQ3nrpQ3PVVgC9XReo7LG7APerbQXe23z5wg7krcDpxEkPVz4tq9gamZuux1DikMwsF88I8YvA4cqS7ECOmAFfloAIBPanu3KTTIHEBpakRBKXxrqRmAZWIjwjxA+Bzsq4Wbdwx2josu7lHRqW742mwc3EQeblNEnDdsUCx2exxYsAGifVWKcqG1jVesgLeyjl7ki+CFAR5bAqxCdvxqfhoqQCaJwUrbtMB7fs0iDzakVnAfHYV681rdKlaZ2UmErH6JhWdSsLSFQ6Hch6jMApRSxHWuFTOQ/hHlv8TEACg8+K8M8E9MMFvrKsQzwO3q3p7rW9COANZD3ZsXO4KKkPtKqy+C/IS08BjC9FdfHjIfQYVQkscjb6DtZINgWocHYEvXZj5UrPYFRLFVst+tBwUSyc1jEfKHK4qNstutiT6JG6PdKFN9AUkNh9vPCe7t0IlC4MDHarMI4cX+rNSMcOFFnNOIi456s3rQ1dJF+0rBZJXCxiLCDB/sg0Pt0C5ZH73lcSUj5cOGUtswngS1+2l9hDmQKilwbG1CY+KP6QCpYSlY5UKT1pvrxjzLsnTdN2NPd61OLZzichaq6v4W3YvfeFP1hQLpaG69mGmhgNc8bNau1ZobauW7RiQLN5UBZbxVrT3y/oiDWj8yyo6ppVmhXMeLeqsfoL47HNEnwXZkEnXjTpheHbdhnXC/oKz06yJ55SDS1rYixz/UpSc5DzBi0Zlw9aXi1qSjZh7W4Lun/Y/p14qcRN2CpTLc6bcD2r1R1ynrHazZrwfNWmV3fC2GK1/Z+QaqpaUVZCO7ZaCj0xNeTl60MOTnUuQIy7rLyX4iljU7O/LxVL1WTeDbe6GbdQYmpL45ZIeF6qNRJFjNNWK02MmLAtllRg76+48Yrnq3RNdXIJU2mas4h4XkrVDoiIJYMTnxRPxnop6rFH3D/lMkcR9X/Jmu+LeL+XrLEirkIoSc9XwEhRsQYRpm4pQdcnnCr0JW7KOd2rq9Ma0D68mu5PNqAnXvZD4LaKqvYzdw56V0XA1sfFtKTrg1SMl7YycoD1ytpbz+zSV1L9EDCc9GT2+k58UPuW8XmoPXDAd7VnDnirgzjg7f494IvqtwPeIoYHvPWaH/BJK60O+KjRjgM+vIdf7qXtT8L3955/uWfvrGeq7+3nZOV6R3x+6/eN+/mIj7afqSvSOmxZnyRr4Q1oTybzL5j6+Rm9ftG31EJp5cMBQ5Yp+vpTHe3zOny5H+l5gvrLhz7woe0AkakurNYmnsZ9KJc85tfW+I6P78v2v/ceJx4f0dS/Zn8kWmHb8fc1oXjqnS7mv/B4k0v9U/JHFl7fl4KU0fQV+xexuf+C+816Mg+kAJ4NZWrU5v7pAd/ffJ5u/hS/73hzPYfuB6Te2+CRPqAZ1zX6y9EC78f9rNzYp/PS7HwdzqPFHw7nUffPQZ+IvX1cHzuPROW2PY+8f/y8H95X4z9U9RGNS4ap997Gd/dnka1iaLzxeB/prAxmMAjKkcAlWU/37+V+JyrqqAQgAeOfzgXLVMvr86u9R/HwFY5UPOkrp7Xg0Ro7+w2pxjf2If7+xv6k+NXOvj3gzX7G/bOxzxG/sf8Rv/EvDowc5r8QfucfIX7jfyF+498hfuM/In7jnyJ+4/8ifuNfI37jvyN+Ex9A/Cb+gFRuRnxzwG/iJ4jfxGcQnzWeH/C+WPElWx+K71kNFVNxXdYPxxXnlyXtA+anrqa8WgHzC1ffxN9o9Et/M7431H5mf7YEtecDdkYUq9kJTAWYdPYXD48rWfNrAfOnJWt+P2D+t1hJHfvXxTo2A9Y0FWtFDNiaUprNauN4fvP4P3Wnla6NKVxMV4bmsyLmo8tQLvzIo9SCzf7ifOhj+Z54KoOu0YpukLWuJn9f2j/VZqdErFBebXG6/pQvq2ZfRdxvK79peM6Hmn9H9tvKz5o/Tutv3cHctbfyy5Y/pfdtWp/D/vLKj1t8ht63W9kw55eH+19IKRI0nsmj1ybenofyTc3YO7g+oSUrAOb6meTPgyQtVs3L1K7tsllPWG8w8U3xlL9bzMT6PFgfUjSew3SNzWg+Lv5e1m58GKVp8QouBm1mb3C16aIX0HonKqNsQ8nymJq52XlhavgeND5QuZbVua5R/3S7X3g0XbfZII2pbJPaM42fP6n91tHf71bL3rGUfeLFfuhck3ppfoSZCideWf54dG4xXlqsN+hWLxcDGijdh7cy2fUi6hGBiEd+UxjMdPW9beYL0yXcLegemSulW9Q3clnbKtAWgczFzV3jmmvwNpeAy0W/Jntz3btolnhhaLAPq93nsRndakViYWWxK/bHjlCvljp05gbrDuBRVCPYI/G89hE1YBMP7cjRMnoNr+Rh4/OeSbvPBKRmLbLSe9I+vwggG4sxjq2JxocWIdlLg/s1s+VhBzrGwwpl4sDa/dUXZU1I+B2yrtIh9j18LmrE5Ma4VLc+w9ufCUh08ZDOHJe9dDrxUAmt1DI4uU9QC3ozf7iiHvVz/uxnAprSvLAmYRSNaaTrSJgkj1QwyzRsIsKaQc7tl5pm5TanYXWT03BDTv62GVp86GqVXpY1Z/7AWeNjhfkvbOYKc7Owbu9+YmPRaoODmnH3dPA7DM3vrA5pFpAAbg7cr2kNbZknC4xh43Ajty4O1Us54fy+MVTd54xR5TG0q3V12+P8BfNLDg39ewlytXcSTEuwl8BxBBsJJlfYSTB/w14C5wVsJJiFYi+BMxg3EsylsZE40HXsJUiT7ySYdGQnwbwmewmco7GRYHaWvQQFinYSzDGzk2Aam70ETg7dSDAZz14Ch11sJJhSaCfBrEV7CQo07SSO3EsSSlnsTkxZIvfr4o86CAgtF3djLIGoAsjYNrTcq/BouGGjHFYHBd+vkkAumU0vy7AsLrIDhU9RgQOxi+Q0Sjm9gyTln20snxoVNjH2cOUrAVtlD29oHqS0E5WSss4dvNShmefSmeOk2xjbs3EXVAA9i64BjMrZ0tFtMuSB0qprer4mds2dhTExqWK7XwsPAR5+PoyUvR5IUczurxfrJavprQe2Myv6qYWpxawLc3GG0hFtGtuqlc145ww9kFA39YPrgSTIMteVpyAul1AEeNSP0xAt/llmGlaS0SPDrVTDnzl0XeDA0qsCRx5gCdCfmYalorDx9OIlIKzV1yla4PM9kfjLmthaYZatakTaFdMqi/xY/kJjGqKqfnBrTEhYdXu3zrS+5Z5IfAgc1H3R1GUbzM1XtDagc/PJohv/+A49nh5JsqOLY51UZdG8Qef+88WBJY+U2Zqxgp2VwqK/cG2mfaJxcmmJRudxFCNrDmoxt5CayZrweeaMPg1wyyMdQlXJ3qGfqJSUR+VAOGWNSePAgRVsDmHAUoT1ADLwgnfrSikFFSDzZy6ieCiDq/engM77SsxbZMp4cL1DNzUzMvp+3Qqe1/7ljKyOjbo4PZlVkT2J6z4TkBqbwQTOS0c0FUCypmjzviozIwUbXFhPPDv6DjzesZlLM7gSoBnL1mB7qVn4eVnjVNtixPKjn4pPdD5q50eykRrLjWL6GZ2EO5jfJls9wOBlTXYezrOybDAVlfCtaVw2d42CCD7v6yWYspewkWJHCeujOkrYYLTvkNDenJOEjXc7SlhG8ChhDGBHCZuDd5SwUXtHCZvmd5LwgYFHCeMGOkpYd95RwhJ9Rwkb3niUsPmQRwkbQXmUsCmXRwkbpPkdEm+ejxLePR+X9fs8w6x7ARtScRKwDr/BJViX2zgDOfgun5U20Py9rAnsGWbdC1htxOESWPNxTadTiOeKNiBuoI2TjVhv8FD6NUU4qADFInI1a5Zr83LRMrLRMb6YL63kWSFK7gbTYYMd/Zbsgyt5mvOi67YpkVTw+KyHfLWimJFDl7VjVVgy4ujRcHuv8o+kAuRVpLwZ9E1J2tVkUFSAQp7JiHJX8I0SSjaOZPAUMG8MXiGZQ2e2nLiCNVvRQm3LDaG/YLXdo+ABika+uKITlGS2MXqD6R1j1vzTuDi5buTXg5l1o1FTr+gEvUOyWZpMqRjjxssmNyT6YGMm6YtRi+3WVEdMFdvUVG47WrS4NhqTE6wabx9MhOZ6LPBML5ttHnhMn+qYzneu8e51zvZ2q1MfSHRhfc6LdZo8eC0t7Afn18Z6cjrPeBM6B5Cb5hd75aHPtp6csKlqRfeChY5WwddZd1WNDXSeIVc0ldIzOr1FL/LOabzd+E+yp65NZJosPBs7sEJCZLpYADVg3WjS/dM4sBG1wqzxsOqo12VjYmmzT1vD5wmWZuLGmqBm1Aoe4e8rDzWngMwzWp1acL6C6oc1IxSfX7L37cLkY9Bps09m5O/EZzRkd3jS58HSUQmTRUH7vhqfr6DdFo2JZPz3uellh6dCAn9fJvLc4enCNnzlQUD2vSaeBkN431pHE2WHf2t/rk5X0A/+vg3vL/teqxyA11/wFaMItt8qNwLu8HTf2XlfFRa8/pfiKbLteG428vW50B5wfH7ze3EVgD8/z8vY4d/SJ5Ubx42nacVg+fmb4omoI+j9WJmI0bKXlYsZg5WTDbSvzF9YzNf4fcXlWczX+PuSTC08aCJo1+Oqn8P9rKNtK9rzwaoYT+dXa+EK5kWD+lOlHO4XrT29sO0n6v48TISNak+WjOclqn1eEgdgtOWnJNRXUQv5SsR+zWhzMpioe4dHIkPFX4ODBOp/XXxe7H2vznXbynN6NQ4p2JwPDsnZ9zpVhW/wvD8dj8SQhi8Y2t3hsS9hg6ciAsfzfbrDY0eC4fNp/xgeuxFsP7D/67+f3lz/dFr/pHiKYjuea2miJvYvnlXl54sLJ/38MtFU1LqB1ZuDeMmrPZnXPsFrW9xAezga7wnP54vWRdexx80qYiaez5dOSm3or0VroWtYJGpzSnLF/ZPUHpt4TMuoPbY62ygFovbY6p2jpIyer3yhfkhqjy2mQsRLdi9fuD+Txn9yRvstaXx44sk/TZrEzQmJppKmMzOXJSeNx2YmTjZeocxEX0mLyTOzdNgcuMy9RpZyezJpfhY/9MHClFtVeyZx96EPOR1of2bjyeLyZZ+62tGf8jlJHG/Pm+Zr8k8dX3F/7vBk3xrPWqrYsuF4jidk1eeJi4odz/HMHZ6Iind40j/ZeLcz3o87PNnDOzzFGx2fDudX3zednsfwZC/5fuDhnr4/I/ojWfXzYbBD1uR3Clx5YXPvAt4XWfXzga4kGy8N13Feel9HLma5bO5X54ofqwHsPMhIE/GRq3WL6v/npIdP8GJPHkYZe5XdKf8o91fkiulq61nQP7WJ7xNP9nm1idgF40vNSIQuHsxoNbcX7mdrCoyZie7Uflh8V1R2r/7LiVBLCw5OjF0a74qs34YRfPGgDGvxXVUasD7DBjbHA2ODzV8OpxoOnfAcsEIhGnVm5BButBjTYBc4WtEUbrloXLMHl9DaJHh2cTQbunMIIvusYKTMyFqW2bi+6rKcLq+/zaplBqBow6l5tnC06deVZ7nYbD0uyYhGw1QwpbuY2iQGikc+GtHgdZqFoj4wcg9HY1Q6hKxt1krGkPuigVNuWgxxb2bXIEGL8zXxfuuacz3MWuk+ixVnrXS9gxOHaLrmDA6zibpRZnGtYHeu3xPenp+fJ+t6HmbFSE3PYbZSV+7wA9FNN4YwLu+0CuzDrJ4NHkPuR/z8h99//POXv/7l51//9a8//vz29Z9fXv//z1+/ffnHt6///u2nx3/645cff/8y/+3/AQ==);lineShape=1;" vertex="1" parent="1">
                    <mxGeometry x="295.1396255363197" y="3.230577904213874" width="293.9729427033644" height="415.10694651244455" as="geometry"/>
                </mxCell>
            </root>
        </mxGraphModel>
    </diagram>
</mxfile>